{"title":"Homeland S05E02 1080p HDTV x264 - 2HD","uid":12555439,"size":1869734518,"categoryP":"video","categoryS":"tv_shows","magnet":"?xt=urn:btih:2e93925c5d9ef9a8426334cf4cabe42205f1db9f&amp;dn=Homeland+S05E02+1080p+HDTV+x264+-+2HD&amp;tr=udp%3A%2F%2Ftracker.leechers-paradise.org%3A6969&amp;tr=udp%3A%2F%2Fzer0day.ch%3A1337&amp;tr=udp%3A%2F%2Fopen.demonii.com%3A1337&amp;tr=udp%3A%2F%2Ftracker.coppersurfer.tk%3A6969&amp;tr=udp%3A%2F%2Fexodus.desync.com%3A6969","seeders":0,"leechers":1,"uploader":"tykoon123","files":2,"time":1444622252,"description":"Video \r\nID : 2 \r\nFormat : AVC \r\nFormat/Info : Advanced Video Codec \r\nFormat profile :    \r\nFormat settings, CABAC : Yes \r\nFormat settings, ReFrames : 4 frames \r\nCodec ID : V_MPEG4/ISO/AVC \r\nDuration : 48mn 13s \r\nBit rate : 4 683 Kbps \r\nWidth : 1 920 pixels \r\nHeight : 1 080 pixels \r\nDisplay aspect ratio : 16:9 \r\nFrame rate mode : Constant \r\nFrame rate : 23.976 fps \r\nColor space : YUV \r\nChroma subsampling : 4:2:0 \r\nBit depth : 8 bits \r\nScan type : Progressive \r\nBits/(Pixel*Frame) : 0.094 \r\nStream size : 1.58 GiB (91%) \r\nLanguage : English \r\nDefault : Yes \r\nForced : No \r\nColor range : Limited \r\nColor primaries : BT.709 \r\nTransfer characteristics : BT.709 \r\nMatrix coefficients : BT.709 \r\n\r\nAudio \r\nID : 3 \r\nFormat : AC-3 \r\nFormat/Info : Audio Coding 3 \r\nMode extension : CM (complete main) \r\nFormat settings, Endianness : Big \r\nCodec ID : A_AC3 \r\nDuration : 48mn 13s \r\nBit rate mode : Constant \r\nBit rate : 384 Kbps \r\nChannel(s) : 6 channels \r\nChannel positions : Front: L C R, Side: L R, LFE \r\nSampling rate : 48.0 KHz \r\nCompression mode : Lossy \r\nStream size : 132 MiB (7%) \r\nLanguage : English \r\nDefault : Yes \r\nForced : No \r\n\r\nText \r\nID : 1 \r\nFormat : UTF-8 \r\nCodec ID : S_TEXT/UTF8 \r\nCodec ID/Info : UTF-8 Plain Text \r\nDefault : Yes \r\nForced : No \r\nAiring: October 11, 2015 \r\n\r\nScreens:  \nhttp://www.imgpuppy.com/image/P0g0  \nhttp://www.imgpuppy.com/image/P8Qv  \nhttp://www.imgpuppy.com/image/PffV  \nhttp://www.imgpuppy.com/image/Pq3r  \nhttp://www.imgpuppy.com/image/PlvO","torrent":{"xt":"urn:btih:2e93925c5d9ef9a8426334cf4cabe42205f1db9f","amp;dn":"Homeland+S05E02+1080p+HDTV+x264+-+2HD","amp;tr":["udp%3A%2F%2Ftracker.leechers-paradise.org%3A6969","udp%3A%2F%2Fzer0day.ch%3A1337","udp%3A%2F%2Fopen.demonii.com%3A1337","udp%3A%2F%2Ftracker.coppersurfer.tk%3A6969","udp%3A%2F%2Fexodus.desync.com%3A6969"],"infoHash":"2e93925c5d9ef9a8426334cf4cabe42205f1db9f","infoHashBuffer":{"type":"Buffer","data":[46,147,146,92,93,158,249,168,66,99,52,207,76,171,228,34,5,241,219,159]},"announce":[],"urlList":[]}}